<svg width="100" height="100" viewBox="0 0 100 100" fill="none" xmlns="http://www.w3.org/2000/svg">
<path d="M7 24.9969V74.9969L50.2995 100L93.6051 74.9969V24.9969L50.2995 0L7 24.9969Z" fill="#FFFEFE"/>
<path d="M7 24.9969V74.9969L50.2995 100L93.6051 74.9969V24.9969L50.2995 0L7 24.9969Z" fill="url(#paint0_linear)"/>
<path d="M50.2995 2.11724L91.7632 26.0556V73.9383L50.2995 97.8766L8.83576 73.9383V26.0617L50.2995 2.11724ZM50.2995 0L7 24.9969V74.9969L50.2995 99.9939L93.599 74.9969V24.9969L50.2995 0Z" fill="url(#paint1_linear)"/>
<path d="M46.2792 83.8881C50.8808 79.9412 53.9221 74.4707 54.8094 68.3882C54.9868 67.1888 55.0786 65.9527 55.0786 64.7167C55.0786 63.8661 55.0358 62.9972 54.9501 62.1343C54.944 62.0487 54.9317 61.9447 54.9195 61.8467C54.5707 58.8973 52.9124 56.2844 50.3729 54.6873C49.9324 54.4119 49.4612 54.1671 48.9839 53.9591C47.4786 53.0779 46.1446 51.9459 45.0309 50.6119L44.8473 50.3855C43.8621 49.1616 43.0789 47.8032 42.5159 46.3468L42.4853 46.2611C42.4241 46.0837 42.369 45.9552 42.3139 45.8267C42.2834 45.741 42.2405 45.6492 42.1977 45.5574C42.1243 45.3983 42.0447 45.2392 41.959 45.0801C41.8856 44.9272 41.7938 44.7681 41.702 44.6151C41.4695 44.2357 41.2431 43.9052 40.9983 43.5993C40.8821 43.4524 40.7658 43.3056 40.6373 43.1709C40.5761 43.0975 40.5088 43.0241 40.4354 42.9507C40.3742 42.8833 40.3007 42.8099 40.2273 42.7365L40.0254 42.5345C39.9703 42.4795 39.903 42.4183 39.8357 42.3571L39.799 42.3204C39.6582 42.1919 39.5114 42.0695 39.3584 41.9532C39.2238 41.8492 39.083 41.7452 38.9423 41.635L38.8811 41.6105L38.8627 41.6044C38.6975 41.482 38.5568 41.3964 38.4221 41.3107C38.2386 41.1944 38.0489 41.0904 37.8531 40.9864C37.5043 40.8028 36.4089 40.3622 36.1947 40.2949C36.1336 40.2704 35.693 40.1481 35.5828 40.1175C35.2585 40.0379 34.9526 39.9706 34.6466 39.9216C34.4324 39.8727 34.206 39.8299 33.9735 39.7993C33.7593 39.7564 33.5329 39.7258 33.3004 39.6952C33.0862 39.6585 32.8598 39.634 32.6395 39.6096C32.3886 39.5851 32.1561 39.5545 31.9235 39.5423C31.7033 39.5239 31.4646 39.4994 31.226 39.4933C30.9995 39.4811 30.7609 39.4688 30.5284 39.4627C30.2836 39.4566 30.0572 39.4505 29.8247 39.4505C28.1358 39.4505 26.4713 39.6157 24.8436 39.94C26.4713 39.4015 28.1174 38.9976 29.6656 38.6183C30.5345 38.4041 31.1342 38.0736 31.5564 37.578C33.2942 35.5403 35.5828 34.3226 37.6695 34.3226C37.9448 34.3226 38.2202 34.3409 38.4894 34.3838C38.6241 34.4144 40.5577 34.7081 41.084 34.7632C41.1452 34.7693 41.7999 34.7999 42.0875 34.7999C45.5938 34.7999 48.9104 33.6739 51.6824 31.5445L52.0863 31.2079C53.457 30.1187 57.6426 26.8021 59.4171 25.9943C62.6175 24.538 66.0442 23.7975 69.5995 23.7975C72.9344 23.7975 76.1593 24.4523 79.2005 25.7373C75.0211 26.129 71.0008 27.5609 67.5067 29.9045C60.4941 34.6163 56.3147 42.4611 56.3147 50.8995C56.3147 52.7597 56.5166 54.6077 56.9144 56.4007C56.9205 56.4374 57.7711 60.7698 57.7711 63.0339C57.7711 65.3959 57.4406 67.7334 56.7797 69.973C55.0725 75.7985 51.3337 80.7061 46.2792 83.8881Z" fill="white"/>
<path d="M69.5994 24.1097C72.4877 24.1097 75.2903 24.6054 77.9583 25.5845C74.1644 26.1229 70.5357 27.512 67.3353 29.6598C60.2432 34.4267 56.0087 42.3694 56.0087 50.9057C56.0087 52.7843 56.2106 54.6568 56.6145 56.4558C56.6206 56.4987 57.4651 60.8005 57.4651 63.0401C57.4651 65.3776 57.1346 67.6784 56.486 69.8936C55.2071 74.2749 52.7594 78.1239 49.4673 81.104C52.4534 77.5242 54.4238 73.1674 55.1092 68.4433C55.2866 67.2256 55.3784 65.9773 55.3784 64.729C55.3784 63.8662 55.3356 62.985 55.2499 62.1467C55.2438 62.0365 55.2316 61.9203 55.2193 61.8407C54.8583 58.7872 53.151 56.0887 50.5259 54.4426C50.0731 54.1611 49.5958 53.9102 49.1001 53.6961C47.6315 52.8271 46.3342 51.7318 45.2573 50.4284L45.0798 50.2204C44.113 49.0149 43.3419 47.6809 42.7973 46.2796C42.7912 46.2551 42.779 46.2306 42.7667 46.2123L42.7545 46.1694L42.7361 46.1266C42.6811 45.9859 42.626 45.8512 42.5832 45.7472C42.5403 45.6432 42.4975 45.5453 42.4608 45.4657C42.3874 45.2883 42.3017 45.1292 42.2099 44.964C42.1303 44.811 42.0447 44.658 41.9407 44.4744C41.7081 44.0889 41.4695 43.7462 41.2186 43.428C41.0778 43.2506 40.9555 43.1098 40.8453 42.9875C40.7719 42.9079 40.7046 42.8284 40.6434 42.7672C40.57 42.6876 40.4904 42.6081 40.4109 42.5285C40.3803 42.504 40.3558 42.4734 40.3252 42.4429C40.2885 42.4061 40.2456 42.3633 40.2212 42.3449C40.16 42.2838 40.0927 42.2164 40.0192 42.1552L39.9764 42.1124C39.8356 41.9839 39.6827 41.8554 39.5174 41.7269C39.3828 41.6229 39.236 41.5127 39.0952 41.4087L39.0157 41.3475L39.0034 41.3414C38.8566 41.2374 38.7097 41.1456 38.5751 41.066C38.3854 40.9498 38.1896 40.8335 37.9815 40.7295C37.6205 40.5337 36.5619 40.1114 36.2865 40.0196C36.2253 39.9952 36.0907 39.9585 35.644 39.8361L35.6073 39.8238H35.6012C35.2524 39.7382 34.9648 39.677 34.6894 39.6341C34.4569 39.5852 34.2366 39.5424 34.0102 39.5118C33.7715 39.4628 33.539 39.4322 33.3309 39.4077C33.0984 39.371 32.8659 39.3465 32.6333 39.3221C32.4008 39.2976 32.1622 39.2731 31.9358 39.2547C31.7032 39.2364 31.4585 39.2119 31.232 39.2058C30.9934 39.1874 30.7486 39.1813 30.4916 39.1752C30.2591 39.1691 30.0327 39.163 29.794 39.163C29.4269 39.163 29.0536 39.1691 28.6865 39.1874C29.0291 39.1018 29.3718 39.0161 29.7084 38.9366C30.6263 38.7101 31.2994 38.3369 31.7583 37.7984C33.4411 35.828 35.6379 34.6531 37.6389 34.6531C37.902 34.6531 38.159 34.6715 38.416 34.7082H38.4221C38.7893 34.7755 40.5455 35.0386 41.0228 35.0876C41.1023 35.0937 41.7632 35.1243 42.0569 35.1243C45.6305 35.1243 49.0144 33.9739 51.8354 31.8016C51.9272 31.7281 52.0741 31.6119 52.2699 31.4589C53.6344 30.3758 57.7894 27.0775 59.5272 26.2943C62.7031 24.8379 66.087 24.1097 69.5994 24.1097ZM69.5994 23.4978C65.9279 23.4978 62.4277 24.2933 59.2886 25.7191C57.2448 26.6431 52.2637 30.6879 51.4744 31.2998C48.8737 33.3008 45.6122 34.494 42.0692 34.494C41.7816 34.494 41.1452 34.4634 41.0962 34.4573C40.5577 34.4022 38.6546 34.1146 38.52 34.084H38.5139C38.2263 34.0412 37.9326 34.0167 37.645 34.0167C35.1973 34.0167 32.872 35.5343 31.2994 37.3762C30.8588 37.8902 30.2285 38.1533 29.5676 38.3185C26.2143 39.1385 22.9834 39.9707 20.1624 41.6841C23.1241 40.448 26.3795 39.7565 29.794 39.7565H29.8002C30.0327 39.7565 30.2652 39.7626 30.4977 39.7688C30.7303 39.7749 30.9628 39.781 31.1892 39.7994C31.4217 39.8116 31.6543 39.83 31.8807 39.8483C32.1132 39.8605 32.3396 39.8911 32.566 39.9156C32.7924 39.9401 33.0127 39.9646 33.2391 40.0013C33.4656 40.0319 33.6859 40.0625 33.9123 40.1053C34.1387 40.1359 34.359 40.1726 34.5793 40.2277C34.8791 40.2767 35.1728 40.344 35.4604 40.4113C35.5155 40.4235 35.9989 40.5581 36.0907 40.5887C36.2743 40.6438 37.3574 41.0783 37.6939 41.2557C37.8836 41.3536 38.0672 41.4577 38.2508 41.5739C38.3976 41.6596 38.5384 41.7514 38.6791 41.8554C38.6914 41.8676 38.7097 41.8799 38.722 41.886C38.8627 41.99 39.0034 42.0941 39.1381 42.1981C39.2849 42.3082 39.4257 42.4245 39.5603 42.5469C39.5664 42.5591 39.5725 42.5591 39.5786 42.5652C39.6521 42.6325 39.7255 42.6937 39.7867 42.761C39.854 42.8284 39.9213 42.8957 39.9886 42.963C40.0559 43.0303 40.1233 43.0976 40.1906 43.1649C40.2579 43.2322 40.3191 43.3057 40.3864 43.3791C40.5088 43.5076 40.6189 43.6483 40.7291 43.7891C40.9738 44.1012 41.2002 44.4255 41.4083 44.7743C41.5001 44.9211 41.5857 45.0741 41.6653 45.2332C41.751 45.3801 41.8244 45.533 41.8978 45.6921C41.9407 45.7778 41.9774 45.8635 42.0141 45.9492C42.0692 46.0715 42.1181 46.2 42.1671 46.3285C42.1793 46.3714 42.1977 46.4142 42.2099 46.457C42.8218 48.0358 43.6785 49.4799 44.7371 50.7588C44.7371 50.7833 44.7616 50.8078 44.7738 50.8078H44.78C45.912 52.1724 47.2827 53.3289 48.8248 54.2346C48.837 54.2407 48.837 54.2407 48.8492 54.2468C49.3204 54.4487 49.7671 54.6813 50.1955 54.9505C52.5819 56.4497 54.2586 58.9708 54.6013 61.9019C54.6135 61.9937 54.6258 62.0794 54.6319 62.1712C54.7175 63.0095 54.7604 63.8601 54.7604 64.7229C54.7604 65.9589 54.6686 67.1644 54.4973 68.3454C53.408 75.8415 48.9839 82.2666 42.7729 86.0544C49.6447 83.1661 54.944 77.2917 57.0612 70.0588C57.716 67.8314 58.0647 65.4755 58.0647 63.034C58.0647 60.7148 57.2019 56.3334 57.2019 56.3334C56.8103 54.5833 56.6084 52.7659 56.6084 50.8996C56.6084 42.2593 60.9958 34.647 67.6658 30.1616C71.3373 27.6956 75.7064 26.178 80.4182 25.9638C77.1505 24.3851 73.479 23.4978 69.5994 23.4978Z" fill="white"/>
<defs>
<linearGradient id="paint0_linear" x1="7.00002" y1="49.9998" x2="93.6023" y2="49.9998" gradientUnits="userSpaceOnUse">
<stop stop-color="#1A73E8" stop-opacity="0.67"/>
<stop offset="1" stop-color="#1A73E8"/>
</linearGradient>
<linearGradient id="paint1_linear" x1="7" y1="49.9998" x2="93.6023" y2="49.9998" gradientUnits="userSpaceOnUse">
<stop stop-color="#1A73E8" stop-opacity="0.27"/>
<stop offset="1" stop-color="#0064E8"/>
</linearGradient>
</defs>
</svg>
