<svg width="320" height="518" viewBox="0 0 320 518" fill="none" xmlns="http://www.w3.org/2000/svg">
<rect width="320" height="518" fill="#E5E5E5"/>
<g clip-path="url(#clip0)">
<rect width="320" height="517.76" fill="#F8F9FA"/>
<g opacity="0.8" clip-path="url(#clip1)">
<path d="M-0.153942 378.535L-32.2449 359.978V322.866L-0.143055 304.31L31.9588 322.866V359.978L-0.153942 378.535ZM-31.156 359.346L-0.153942 377.27L30.8481 359.346V323.498L-0.153942 305.574L-31.156 323.498V359.346Z" fill="url(#paint0_linear)"/>
<path d="M31.4035 433.255L-0.698364 414.699V377.586L31.4035 359.03L63.5054 377.586V414.699L31.4035 433.255ZM0.401461 414.066L31.4035 431.979L62.4056 414.056V378.208L31.4035 360.295L0.401461 378.219V414.066Z" fill="url(#paint1_linear)"/>
<path d="M-0.153919 487.964L-32.2558 469.408V432.296L-0.153919 413.739L31.948 432.296V469.408L-0.153919 487.964ZM-31.156 468.776L-0.153919 486.7L30.8481 468.776V432.928L-0.153919 415.004L-31.156 432.928V468.776Z" fill="url(#paint2_linear)"/>
<path d="M62.95 487.964L30.8481 469.408V432.296L62.95 413.739L95.0519 432.296V469.408L62.95 487.964ZM31.948 468.776L62.95 486.7L93.9521 468.776V432.928L62.95 415.004L31.948 432.939V468.776Z" fill="url(#paint3_linear)"/>
<path d="M29.2147 540.144L0.401461 523.485V487.648L31.4035 469.724L62.4056 487.648V523.485L33.5923 540.144H35.781L63.4945 524.128V487.016L31.4035 468.46L-0.698364 487.016V524.128L27.0151 540.144H29.2147Z" fill="url(#paint4_linear)"/>
<path d="M92.3078 540.144L63.4945 523.485V487.648L94.4966 469.724L125.499 487.648V523.485L96.6962 540.144H98.885L126.598 524.128V487.016L94.4966 468.46L62.4056 487.016V524.128L90.119 540.144H92.3078Z" fill="url(#paint5_linear)"/>
<path d="M42.4157 319.952C43.3719 319.952 44.1543 319.169 44.1543 318.211C44.1543 317.254 43.3719 316.471 42.4157 316.471C41.4594 316.471 40.6771 317.254 40.6771 318.211C40.6771 319.18 41.4486 319.952 42.4157 319.952Z" fill="url(#paint6_linear)"/>
<path d="M18.249 357.889C17.0211 357.889 16.0323 358.89 16.0323 360.108C16.0323 361.338 17.032 362.328 18.249 362.328C19.4769 362.328 20.4766 361.327 20.4766 360.108C20.4766 358.879 19.4769 357.889 18.249 357.889Z" fill="url(#paint7_linear)"/>
<path d="M18.249 307.506C20.0434 307.506 21.4981 306.05 21.4981 304.253C21.4981 302.456 20.0434 301 18.249 301C16.4546 301 15 302.456 15 304.253C15 306.05 16.4546 307.506 18.249 307.506Z" fill="url(#paint8_linear)"/>
<path d="M42.4157 348.881C43.9261 348.881 45.1431 347.651 45.1431 346.15C45.1431 344.649 43.9152 343.419 42.4157 343.419C40.9161 343.419 39.6882 344.649 39.6882 346.15C39.6882 347.651 40.9053 348.881 42.4157 348.881Z" fill="url(#paint9_linear)"/>
<path d="M18.2645 360.095L18.2101 360.062L-6 346.071V318.024L-5.94567 317.991L18.2645 304L18.3188 304.033L42.5289 318.024V346.071L42.4746 346.104L18.2645 360.095ZM-5.78267 345.951L18.2645 359.855L42.3116 345.951V318.143L18.2645 304.239L-5.78267 318.143V345.951Z" fill="url(#paint10_linear)"/>
<path d="M18.4312 461.342L18.3768 461.309L-5.83331 447.318V419.271L-5.77898 419.238L18.4312 405.247L18.4855 405.28L42.6956 419.271V447.318L42.6413 447.351L18.4312 461.342ZM-5.62685 447.198L18.4203 461.102L42.4674 447.198V419.39L18.4203 405.486L-5.62685 419.39V447.198Z" fill="url(#paint11_linear)"/>
<path d="M-5.73554 503.239L-5.78987 503.206L-30 489.215V461.168L-29.9457 461.135L-5.73554 447.144L-5.68121 447.177L18.5289 461.168V489.215L18.4746 489.248L-5.73554 503.239ZM-29.7827 489.085L-5.73554 502.989L18.3116 489.085V461.287L-5.73554 447.383L-29.7827 461.287V489.085Z" fill="url(#paint12_linear)"/>
<path d="M42.5869 503.239L42.5326 503.206L18.3224 489.215V461.168L18.3768 461.135L42.5869 447.144L42.6412 447.177L66.8514 461.168V489.215L66.797 489.248L42.5869 503.239ZM18.5289 489.085L42.576 502.989L66.6232 489.085V461.287L42.576 447.383L18.5289 461.287V489.085Z" fill="url(#paint13_linear)"/>
<path d="M90.8985 503.239L90.8442 503.206L66.634 489.215V461.168L66.6884 461.135L90.8985 447.144L90.9528 447.177L115.163 461.168V489.215L115.109 489.248L90.8985 503.239ZM66.8405 489.085L90.8876 502.989L114.935 489.085V461.287L90.8876 447.383L66.8405 461.287V489.085Z" fill="url(#paint14_linear)"/>
<path d="M66.7645 461.251L66.709 461.217L42 446.938V418.313L42.0555 418.279L66.7645 404L66.8199 404.033L91.5289 418.313V446.938L91.4735 446.971L66.7645 461.251ZM42.2218 446.805L66.7645 460.995L91.3071 446.805V418.435L66.7645 404.244L42.2218 418.435V446.805Z" fill="url(#paint15_linear)"/>
<path d="M18.4312 545.125L18.3768 545.092L-5.83331 531.101V503.054L-5.77898 503.021L18.4312 489.03L18.4855 489.063L42.6956 503.054V531.101L42.6413 531.134L18.4312 545.125ZM-5.62685 530.982L18.4203 544.886L42.4674 530.982V503.174L18.4203 489.269L-5.62685 503.174V530.982Z" fill="url(#paint16_linear)"/>
<path d="M66.7427 545.125L66.6883 545.092L42.4782 531.101V503.054L42.5325 503.021L66.7427 489.03L66.797 489.063L91.0071 503.054V531.101L90.9528 531.134L66.7427 545.125ZM42.6847 530.982L66.7427 544.886L90.7898 530.982V503.174L66.7427 489.269L42.6847 503.174V530.982Z" fill="url(#paint17_linear)"/>
<path d="M115.054 545.125L115 545.092L90.7899 531.101V503.054L90.8442 503.021L115.054 489.03L115.109 489.063L139.319 503.054V531.101L139.264 531.134L115.054 545.125ZM91.0072 530.982L115.054 544.886L139.101 530.982V503.174L115.054 489.269L91.0072 503.174V530.982Z" fill="url(#paint18_linear)"/>
<path d="M40.2787 419.037C40.2787 419.908 40.985 420.626 41.8652 420.626C42.7345 420.626 43.4517 419.919 43.4517 419.037C43.4517 418.167 42.7453 417.449 41.8652 417.449C40.985 417.46 40.2787 418.167 40.2787 419.037Z" fill="url(#paint19_linear)"/>
<path d="M17.7094 408.158C19.4154 408.158 20.7845 406.776 20.7845 405.079C20.7845 403.382 19.4045 402 17.7094 402C16.0034 402 14.6342 403.382 14.6342 405.079C14.6342 406.776 16.0034 408.158 17.7094 408.158Z" fill="url(#paint20_linear)"/>
<path d="M41.8652 449.587C43.3104 449.587 44.484 448.412 44.484 446.965C44.484 445.518 43.3104 444.343 41.8652 444.343C40.42 444.343 39.2464 445.518 39.2464 446.965C39.2464 448.412 40.42 449.587 41.8652 449.587Z" fill="url(#paint21_linear)"/>
<path d="M114.333 463.339C115.658 463.339 116.734 462.262 116.734 460.934C116.734 459.607 115.658 458.53 114.333 458.53C113.007 458.53 111.931 459.607 111.931 460.934C111.931 462.262 113.007 463.339 114.333 463.339Z" fill="url(#paint22_linear)"/>
<path d="M67.7468 404.821C67.7468 403.537 66.7036 402.493 65.4214 402.493C64.1392 402.493 63.096 403.537 63.096 404.821C63.096 406.105 64.1392 407.149 65.4214 407.149C66.7036 407.149 67.7468 406.105 67.7468 404.821Z" fill="url(#paint23_linear)"/>
<path d="M89.5772 421.51C91.0767 421.51 92.2937 420.292 92.2937 418.79C92.2937 417.289 91.0767 416.071 89.5772 416.071C88.0776 416.071 86.8606 417.289 86.8606 418.79C86.8606 420.292 88.0776 421.51 89.5772 421.51Z" fill="url(#paint24_linear)"/>
<path d="M15.6774 488.862C15.6774 489.983 16.5793 490.886 17.6985 490.886C18.8177 490.886 19.7196 489.983 19.7196 488.862C19.7196 487.742 18.8177 486.839 17.6985 486.839C16.5901 486.839 15.6774 487.742 15.6774 488.862Z" fill="url(#paint25_linear)"/>
<path d="M19.0894 460.934C19.0894 460.162 18.47 459.542 17.6985 459.542C16.927 459.542 16.3076 460.162 16.3076 460.934C16.3076 461.707 16.927 462.327 17.6985 462.327C18.47 462.327 19.0894 461.707 19.0894 460.934Z" fill="url(#paint26_linear)"/>
<path d="M66.021 459.792C65.3907 459.792 64.88 460.303 64.88 460.934C64.88 461.565 65.3907 462.077 66.021 462.077C66.6512 462.077 67.1619 461.565 67.1619 460.934C67.1511 460.303 66.6512 459.792 66.021 459.792Z" fill="url(#paint27_linear)"/>
<path d="M88.2643 502.831C88.2643 503.887 89.1227 504.746 90.1767 504.746C91.2308 504.746 92.0892 503.887 92.0892 502.831C92.0892 501.776 91.2308 500.917 90.1767 500.917C89.1227 500.906 88.2643 501.765 88.2643 502.831Z" fill="url(#paint28_linear)"/>
<path d="M66.021 486.099C64.4997 486.099 63.2609 487.339 63.2609 488.862C63.2609 490.385 64.4997 491.626 66.021 491.626C67.5422 491.626 68.781 490.385 68.781 488.862C68.781 487.339 67.5422 486.099 66.021 486.099Z" fill="url(#paint29_linear)"/>
<path d="M89.5772 449.699C91.218 449.699 92.5546 448.361 92.5546 446.718C92.5546 445.075 91.218 443.737 89.5772 443.737C87.9364 443.737 86.5999 445.075 86.5999 446.718C86.6107 448.361 87.9364 449.699 89.5772 449.699Z" fill="url(#paint30_linear)"/>
<path d="M40.0287 502.831C40.0287 503.843 40.8437 504.67 41.8651 504.67C42.8757 504.67 43.7016 503.854 43.7016 502.831C43.7016 501.82 42.8866 500.993 41.8651 500.993C40.8546 500.993 40.0287 501.809 40.0287 502.831Z" fill="url(#paint31_linear)"/>
<path d="M114.333 491.995C116.061 491.995 117.462 490.593 117.462 488.862C117.462 487.132 116.061 485.729 114.333 485.729C112.604 485.729 111.203 487.132 111.203 488.862C111.203 490.593 112.604 491.995 114.333 491.995Z" fill="url(#paint32_linear)"/>
<path d="M138.488 503.985C139.125 503.985 139.64 503.468 139.64 502.831C139.64 502.195 139.125 501.678 138.488 501.678C137.852 501.678 137.337 502.195 137.337 502.831C137.337 503.468 137.852 503.985 138.488 503.985Z" fill="url(#paint33_linear)"/>
<path d="M201.264 80.1057L201.21 80.0731L177 66.082V38.0237L177.054 37.9911L201.264 24L201.319 24.0326L225.529 38.0237V66.0711L225.475 66.1038L201.264 80.1057ZM177.206 65.9515L201.254 79.8555L225.301 65.9515V38.1543L201.254 24.2502L177.206 38.1543V65.9515Z" fill="url(#paint34_linear)"/>
<path d="M249.576 80.1057L249.522 80.0731L225.312 66.082V38.0237L225.366 37.9911L249.576 24L249.63 24.0326L273.84 38.0237V66.0711L273.786 66.1038L249.576 80.1057ZM225.518 65.9515L249.576 79.8555L273.623 65.9515V38.1543L249.576 24.2502L225.529 38.1543V65.9515H225.518Z" fill="url(#paint35_linear)"/>
<path d="M297.888 80.1057L297.833 80.0731L273.623 66.082V38.0237L273.678 37.9911L297.888 24L297.942 24.0326L322.152 38.0237V66.0711L322.098 66.1038L297.888 80.1057ZM273.841 65.9515L297.899 79.8555L321.946 65.9515V38.1543L297.899 24.2502L273.841 38.1543V65.9515Z" fill="url(#paint36_linear)"/>
<path d="M225.42 121.992L225.366 121.959L201.156 107.968V79.9208L201.21 79.8882L225.42 65.8971L225.475 65.9297L249.685 79.9208V107.968L249.63 108.001L225.42 121.992ZM201.362 107.849L225.409 121.753L249.457 107.849V80.0405L225.409 66.1364L201.362 80.0405V107.849Z" fill="url(#paint37_linear)"/>
<path d="M273.732 121.992L273.678 121.959L249.467 107.968V79.9208L249.522 79.8882L273.732 65.8971L273.786 65.9297L297.996 79.9208V107.968L297.942 108.001L273.732 121.992ZM249.685 107.849L273.732 121.753L297.779 107.849V80.0405L273.732 66.1364L249.685 80.0405V107.849Z" fill="url(#paint38_linear)"/>
<path d="M297.888 163.889L297.833 163.856L273.623 149.865V121.818L273.678 121.785L297.888 107.794L297.942 107.827L322.152 121.818V149.865L322.098 149.898L297.888 163.889ZM273.841 149.746L297.899 163.65L321.946 149.746V121.938L297.899 108.034L273.841 121.938V149.746Z" fill="url(#paint39_linear)"/>
<path d="M177.336 34.0327C175.5 34.0327 174 35.5232 174 37.3727C174 39.2113 175.489 40.7127 177.336 40.7127C179.172 40.7127 180.672 39.2222 180.672 37.3727C180.661 35.5341 179.172 34.0327 177.336 34.0327Z" fill="url(#paint40_linear)"/>
<path d="M201.492 81.141C202.524 81.141 203.372 80.3033 203.372 79.2588C203.372 78.2253 202.535 77.3767 201.492 77.3767C200.459 77.3767 199.612 78.2144 199.612 79.2588C199.612 80.3033 200.449 81.141 201.492 81.141Z" fill="url(#paint41_linear)"/>
<path d="M201.492 24.3717C202.026 24.3717 202.459 23.9382 202.459 23.4034C202.459 22.8687 202.026 22.4352 201.492 22.4352C200.958 22.4352 200.525 22.8687 200.525 23.4034C200.525 23.9382 200.958 24.3717 201.492 24.3717Z" fill="url(#paint42_linear)"/>
<path d="M225.648 39.2875C226.702 39.2875 227.56 38.428 227.56 37.3727C227.56 36.3173 226.702 35.4579 225.648 35.4579C224.594 35.4579 223.735 36.3173 223.735 37.3727C223.735 38.428 224.594 39.2875 225.648 39.2875Z" fill="url(#paint43_linear)"/>
<path d="M225.647 61.9387C223.789 61.9387 222.29 63.4401 222.29 65.3005C222.29 67.1608 223.789 68.6622 225.647 68.6622C227.506 68.6622 229.005 67.1608 229.005 65.3005C229.005 63.4401 227.495 61.9387 225.647 61.9387Z" fill="url(#paint44_linear)"/>
<path d="M249.803 24.8286C250.586 24.8286 251.216 24.1976 251.216 23.4143C251.216 22.631 250.586 22 249.803 22C249.021 22 248.391 22.631 248.391 23.4143C248.391 24.1868 249.021 24.8286 249.803 24.8286Z" fill="url(#paint45_linear)"/>
<path d="M273.959 39.9837C275.394 39.9837 276.567 38.8196 276.567 37.3727C276.567 35.9366 275.404 34.7616 273.959 34.7616C272.525 34.7616 271.351 35.9257 271.351 37.3727C271.351 38.8088 272.525 39.9837 273.959 39.9837Z" fill="url(#paint46_linear)"/>
<path d="M273.959 68.412C275.675 68.412 277.067 67.0189 277.067 65.3005C277.067 63.582 275.675 62.1889 273.959 62.1889C272.243 62.1889 270.851 63.582 270.851 65.3005C270.851 67.0189 272.243 68.412 273.959 68.412Z" fill="url(#paint47_linear)"/>
<path d="M201.492 109.711C202.883 109.711 204.013 108.579 204.013 107.187C204.013 105.794 202.883 104.663 201.492 104.663C200.101 104.663 198.971 105.794 198.971 107.187C198.971 108.59 200.101 109.711 201.492 109.711Z" fill="url(#paint48_linear)"/>
<path d="M249.803 77.9751C249.097 77.9751 248.51 78.5517 248.51 79.2697C248.51 79.9769 249.086 80.5644 249.803 80.5644C250.521 80.5644 251.096 79.9878 251.096 79.2697C251.096 78.5517 250.51 77.9751 249.803 77.9751Z" fill="url(#paint49_linear)"/>
<path d="M249.803 109.591C251.118 109.591 252.194 108.525 252.194 107.198C252.194 105.881 251.129 104.804 249.803 104.804C248.489 104.804 247.413 105.87 247.413 107.198C247.413 108.514 248.489 109.591 249.803 109.591Z" fill="url(#paint50_linear)"/>
<path d="M227.658 121.156C227.658 120.046 226.756 119.143 225.647 119.143C224.539 119.143 223.637 120.046 223.637 121.156C223.637 122.266 224.539 123.169 225.647 123.169C226.756 123.169 227.658 122.266 227.658 121.156Z" fill="url(#paint51_linear)"/>
<path d="M273.959 146.505C272.536 146.505 271.373 147.658 271.373 149.095C271.373 150.52 272.525 151.684 273.959 151.684C275.383 151.684 276.545 150.531 276.545 149.095C276.545 147.658 275.383 146.505 273.959 146.505Z" fill="url(#paint52_linear)"/>
<path d="M295.442 163.053C295.442 164.533 296.637 165.74 298.126 165.74C299.604 165.74 300.81 164.543 300.81 163.053C300.81 161.573 299.615 160.366 298.126 160.366C296.637 160.366 295.442 161.562 295.442 163.053Z" fill="url(#paint53_linear)"/>
<path d="M287.753 0V23.844L256.751 41.768L225.749 23.844V0H224.649V24.4764L256.751 43.0327L288.842 24.4764V0H287.753Z" fill="url(#paint54_linear)"/>
<path d="M288.298 97.263L256.196 78.7067V41.6051L288.298 23.0488L320.399 41.6051V78.7176L288.298 97.263ZM257.296 78.0853L288.298 96.0092L319.3 78.0853V42.2374L288.298 24.3135L257.296 42.2374V78.0853Z" fill="url(#paint55_linear)"/>
<path d="M319.844 152.391L287.742 133.834V96.7219L319.844 78.1656L351.946 96.7219V133.834L319.844 152.391ZM288.842 133.202L319.844 151.126L350.846 133.202V97.3542L319.844 79.4303L288.842 97.3542V133.202Z" fill="url(#paint56_linear)"/>
<path d="M350.846 0V23.844L319.844 41.768L288.842 23.844V0H287.753V24.4764L319.844 43.0327L351.946 24.4764V0H350.846Z" fill="url(#paint57_linear)"/>
</g>
</g>
<defs>
<linearGradient id="paint0_linear" x1="249.956" y1="728.061" x2="2.29394" y2="346.137" gradientUnits="userSpaceOnUse">
<stop stop-color="#52BBE8"/>
<stop offset="0.196" stop-color="#69C3EB"/>
<stop offset="0.6037" stop-color="#A3D8F1"/>
<stop offset="1" stop-color="#E1EFF8"/>
</linearGradient>
<linearGradient id="paint1_linear" x1="247.248" y1="729.816" x2="-0.413308" y2="347.892" gradientUnits="userSpaceOnUse">
<stop stop-color="#52BBE8"/>
<stop offset="0.196" stop-color="#69C3EB"/>
<stop offset="0.6037" stop-color="#A3D8F1"/>
<stop offset="1" stop-color="#E1EFF8"/>
</linearGradient>
<linearGradient id="paint2_linear" x1="200.088" y1="760.398" x2="-47.5741" y2="378.474" gradientUnits="userSpaceOnUse">
<stop stop-color="#52BBE8"/>
<stop offset="0.196" stop-color="#69C3EB"/>
<stop offset="0.6037" stop-color="#A3D8F1"/>
<stop offset="1" stop-color="#E1EFF8"/>
</linearGradient>
<linearGradient id="paint3_linear" x1="244.541" y1="731.572" x2="-3.12049" y2="349.647" gradientUnits="userSpaceOnUse">
<stop stop-color="#52BBE8"/>
<stop offset="0.196" stop-color="#69C3EB"/>
<stop offset="0.6037" stop-color="#A3D8F1"/>
<stop offset="1" stop-color="#E1EFF8"/>
</linearGradient>
<linearGradient id="paint4_linear" x1="197.38" y1="762.153" x2="-50.2808" y2="380.229" gradientUnits="userSpaceOnUse">
<stop stop-color="#52BBE8"/>
<stop offset="0.196" stop-color="#69C3EB"/>
<stop offset="0.6037" stop-color="#A3D8F1"/>
<stop offset="1" stop-color="#E1EFF8"/>
</linearGradient>
<linearGradient id="paint5_linear" x1="241.834" y1="733.327" x2="-5.8273" y2="351.403" gradientUnits="userSpaceOnUse">
<stop stop-color="#52BBE8"/>
<stop offset="0.196" stop-color="#69C3EB"/>
<stop offset="0.6037" stop-color="#A3D8F1"/>
<stop offset="1" stop-color="#E1EFF8"/>
</linearGradient>
<linearGradient id="paint6_linear" x1="313.956" y1="737.992" x2="66.8227" y2="356.882" gradientUnits="userSpaceOnUse">
<stop stop-color="#52BBE8"/>
<stop offset="0.196" stop-color="#69C3EB"/>
<stop offset="0.6037" stop-color="#A3D8F1"/>
<stop offset="1" stop-color="#E1EFF8"/>
</linearGradient>
<linearGradient id="paint7_linear" x1="277.85" y1="761.414" x2="30.7129" y2="380.298" gradientUnits="userSpaceOnUse">
<stop stop-color="#52BBE8"/>
<stop offset="0.196" stop-color="#69C3EB"/>
<stop offset="0.6037" stop-color="#A3D8F1"/>
<stop offset="1" stop-color="#E1EFF8"/>
</linearGradient>
<linearGradient id="paint8_linear" x1="303.306" y1="744.909" x2="56.1676" y2="363.793" gradientUnits="userSpaceOnUse">
<stop stop-color="#52BBE8"/>
<stop offset="0.196" stop-color="#69C3EB"/>
<stop offset="0.6037" stop-color="#A3D8F1"/>
<stop offset="1" stop-color="#E1EFF8"/>
</linearGradient>
<linearGradient id="paint9_linear" x1="301.234" y1="746.254" x2="54.0952" y2="365.137" gradientUnits="userSpaceOnUse">
<stop stop-color="#52BBE8"/>
<stop offset="0.196" stop-color="#69C3EB"/>
<stop offset="0.6037" stop-color="#A3D8F1"/>
<stop offset="1" stop-color="#E1EFF8"/>
</linearGradient>
<linearGradient id="paint10_linear" x1="290.593" y1="753.026" x2="43.4559" y2="371.912" gradientUnits="userSpaceOnUse">
<stop stop-color="#52BBE8"/>
<stop offset="0.196" stop-color="#69C3EB"/>
<stop offset="0.6037" stop-color="#A3D8F1"/>
<stop offset="1" stop-color="#E1EFF8"/>
</linearGradient>
<linearGradient id="paint11_linear" x1="226.337" y1="754.698" x2="-20.8" y2="373.582" gradientUnits="userSpaceOnUse">
<stop stop-color="#52BBE8"/>
<stop offset="0.196" stop-color="#69C3EB"/>
<stop offset="0.6037" stop-color="#A3D8F1"/>
<stop offset="1" stop-color="#E1EFF8"/>
</linearGradient>
<linearGradient id="paint12_linear" x1="190.228" y1="778.113" x2="-56.9093" y2="396.998" gradientUnits="userSpaceOnUse">
<stop stop-color="#52BBE8"/>
<stop offset="0.196" stop-color="#69C3EB"/>
<stop offset="0.6037" stop-color="#A3D8F1"/>
<stop offset="1" stop-color="#E1EFF8"/>
</linearGradient>
<linearGradient id="paint13_linear" x1="224.264" y1="756.041" x2="-22.8725" y2="374.927" gradientUnits="userSpaceOnUse">
<stop stop-color="#52BBE8"/>
<stop offset="0.196" stop-color="#69C3EB"/>
<stop offset="0.6037" stop-color="#A3D8F1"/>
<stop offset="1" stop-color="#E1EFF8"/>
</linearGradient>
<linearGradient id="paint14_linear" x1="258.301" y1="733.97" x2="11.1642" y2="352.855" gradientUnits="userSpaceOnUse">
<stop stop-color="#52BBE8"/>
<stop offset="0.196" stop-color="#69C3EB"/>
<stop offset="0.6037" stop-color="#A3D8F1"/>
<stop offset="1" stop-color="#E1EFF8"/>
</linearGradient>
<linearGradient id="paint15_linear" x1="223.048" y1="674.21" x2="-29.1814" y2="285.242" gradientUnits="userSpaceOnUse">
<stop stop-color="#52BBE8"/>
<stop offset="0.196" stop-color="#69C3EB"/>
<stop offset="0.6037" stop-color="#A3D8F1"/>
<stop offset="1" stop-color="#E1EFF8"/>
</linearGradient>
<linearGradient id="paint16_linear" x1="188.154" y1="779.457" x2="-58.9823" y2="398.343" gradientUnits="userSpaceOnUse">
<stop stop-color="#52BBE8"/>
<stop offset="0.196" stop-color="#69C3EB"/>
<stop offset="0.6037" stop-color="#A3D8F1"/>
<stop offset="1" stop-color="#E1EFF8"/>
</linearGradient>
<linearGradient id="paint17_linear" x1="222.191" y1="757.386" x2="-24.9458" y2="376.271" gradientUnits="userSpaceOnUse">
<stop stop-color="#52BBE8"/>
<stop offset="0.196" stop-color="#69C3EB"/>
<stop offset="0.6037" stop-color="#A3D8F1"/>
<stop offset="1" stop-color="#E1EFF8"/>
</linearGradient>
<linearGradient id="paint18_linear" x1="256.228" y1="735.314" x2="9.09129" y2="354.2" gradientUnits="userSpaceOnUse">
<stop stop-color="#52BBE8"/>
<stop offset="0.196" stop-color="#69C3EB"/>
<stop offset="0.6037" stop-color="#A3D8F1"/>
<stop offset="1" stop-color="#E1EFF8"/>
</linearGradient>
<linearGradient id="paint19_linear" x1="248.998" y1="739.246" x2="1.86263" y2="358.132" gradientUnits="userSpaceOnUse">
<stop stop-color="#52BBE8"/>
<stop offset="0.196" stop-color="#69C3EB"/>
<stop offset="0.6037" stop-color="#A3D8F1"/>
<stop offset="1" stop-color="#E1EFF8"/>
</linearGradient>
<linearGradient id="paint20_linear" x1="238.342" y1="746.154" x2="-8.79241" y2="365.041" gradientUnits="userSpaceOnUse">
<stop stop-color="#52BBE8"/>
<stop offset="0.196" stop-color="#69C3EB"/>
<stop offset="0.6037" stop-color="#A3D8F1"/>
<stop offset="1" stop-color="#E1EFF8"/>
</linearGradient>
<linearGradient id="paint21_linear" x1="236.273" y1="747.503" x2="-10.8647" y2="366.383" gradientUnits="userSpaceOnUse">
<stop stop-color="#52BBE8"/>
<stop offset="0.196" stop-color="#69C3EB"/>
<stop offset="0.6037" stop-color="#A3D8F1"/>
<stop offset="1" stop-color="#E1EFF8"/>
</linearGradient>
<linearGradient id="paint22_linear" x1="280.959" y1="718.516" x2="33.8257" y2="337.408" gradientUnits="userSpaceOnUse">
<stop stop-color="#52BBE8"/>
<stop offset="0.196" stop-color="#69C3EB"/>
<stop offset="0.6037" stop-color="#A3D8F1"/>
<stop offset="1" stop-color="#E1EFF8"/>
</linearGradient>
<linearGradient id="paint23_linear" x1="231.278" y1="661.214" x2="-15.8579" y2="280.097" gradientUnits="userSpaceOnUse">
<stop stop-color="#52BBE8"/>
<stop offset="0.196" stop-color="#69C3EB"/>
<stop offset="0.6037" stop-color="#A3D8F1"/>
<stop offset="1" stop-color="#E1EFF8"/>
</linearGradient>
<linearGradient id="paint24_linear" x1="241.931" y1="654.304" x2="-5.20538" y2="273.19" gradientUnits="userSpaceOnUse">
<stop stop-color="#52BBE8"/>
<stop offset="0.196" stop-color="#69C3EB"/>
<stop offset="0.6037" stop-color="#A3D8F1"/>
<stop offset="1" stop-color="#E1EFF8"/>
</linearGradient>
<linearGradient id="paint25_linear" x1="200.16" y1="770.915" x2="-46.9757" y2="389.802" gradientUnits="userSpaceOnUse">
<stop stop-color="#52BBE8"/>
<stop offset="0.196" stop-color="#69C3EB"/>
<stop offset="0.6037" stop-color="#A3D8F1"/>
<stop offset="1" stop-color="#E1EFF8"/>
</linearGradient>
<linearGradient id="paint26_linear" x1="212.888" y1="762.662" x2="-34.2482" y2="381.548" gradientUnits="userSpaceOnUse">
<stop stop-color="#52BBE8"/>
<stop offset="0.196" stop-color="#69C3EB"/>
<stop offset="0.6037" stop-color="#A3D8F1"/>
<stop offset="1" stop-color="#E1EFF8"/>
</linearGradient>
<linearGradient id="paint27_linear" x1="246.924" y1="740.587" x2="-0.207015" y2="359.475" gradientUnits="userSpaceOnUse">
<stop stop-color="#52BBE8"/>
<stop offset="0.196" stop-color="#69C3EB"/>
<stop offset="0.6037" stop-color="#A3D8F1"/>
<stop offset="1" stop-color="#E1EFF8"/>
</linearGradient>
<linearGradient id="paint28_linear" x1="244.851" y1="741.936" x2="-2.28602" y2="360.822" gradientUnits="userSpaceOnUse">
<stop stop-color="#52BBE8"/>
<stop offset="0.196" stop-color="#69C3EB"/>
<stop offset="0.6037" stop-color="#A3D8F1"/>
<stop offset="1" stop-color="#E1EFF8"/>
</linearGradient>
<linearGradient id="paint29_linear" x1="234.197" y1="748.845" x2="-12.9397" y2="367.73" gradientUnits="userSpaceOnUse">
<stop stop-color="#52BBE8"/>
<stop offset="0.196" stop-color="#69C3EB"/>
<stop offset="0.6037" stop-color="#A3D8F1"/>
<stop offset="1" stop-color="#E1EFF8"/>
</linearGradient>
<linearGradient id="paint30_linear" x1="229.205" y1="662.558" x2="-17.9314" y2="281.442" gradientUnits="userSpaceOnUse">
<stop stop-color="#52BBE8"/>
<stop offset="0.196" stop-color="#69C3EB"/>
<stop offset="0.6037" stop-color="#A3D8F1"/>
<stop offset="1" stop-color="#E1EFF8"/>
</linearGradient>
<linearGradient id="paint31_linear" x1="210.814" y1="764.009" x2="-36.3266" y2="382.894" gradientUnits="userSpaceOnUse">
<stop stop-color="#52BBE8"/>
<stop offset="0.196" stop-color="#69C3EB"/>
<stop offset="0.6037" stop-color="#A3D8F1"/>
<stop offset="1" stop-color="#E1EFF8"/>
</linearGradient>
<linearGradient id="paint32_linear" x1="268.234" y1="726.775" x2="21.0944" y2="345.659" gradientUnits="userSpaceOnUse">
<stop stop-color="#52BBE8"/>
<stop offset="0.196" stop-color="#69C3EB"/>
<stop offset="0.6037" stop-color="#A3D8F1"/>
<stop offset="1" stop-color="#E1EFF8"/>
</linearGradient>
<linearGradient id="paint33_linear" x1="278.887" y1="719.858" x2="31.7578" y2="338.751" gradientUnits="userSpaceOnUse">
<stop stop-color="#52BBE8"/>
<stop offset="0.196" stop-color="#69C3EB"/>
<stop offset="0.6037" stop-color="#A3D8F1"/>
<stop offset="1" stop-color="#E1EFF8"/>
</linearGradient>
<linearGradient id="paint34_linear" x1="428.427" y1="403.223" x2="181.29" y2="22.1073" gradientUnits="userSpaceOnUse">
<stop stop-color="#52BBE8"/>
<stop offset="0.196" stop-color="#69C3EB"/>
<stop offset="0.6037" stop-color="#A3D8F1"/>
<stop offset="1" stop-color="#E1EFF8"/>
</linearGradient>
<linearGradient id="paint35_linear" x1="462.464" y1="381.151" x2="215.327" y2="0.0358443" gradientUnits="userSpaceOnUse">
<stop stop-color="#52BBE8"/>
<stop offset="0.196" stop-color="#69C3EB"/>
<stop offset="0.6037" stop-color="#A3D8F1"/>
<stop offset="1" stop-color="#E1EFF8"/>
</linearGradient>
<linearGradient id="paint36_linear" x1="496.501" y1="359.079" x2="249.364" y2="-22.036" gradientUnits="userSpaceOnUse">
<stop stop-color="#52BBE8"/>
<stop offset="0.196" stop-color="#69C3EB"/>
<stop offset="0.6037" stop-color="#A3D8F1"/>
<stop offset="1" stop-color="#E1EFF8"/>
</linearGradient>
<linearGradient id="paint37_linear" x1="426.354" y1="404.566" x2="179.217" y2="23.4514" gradientUnits="userSpaceOnUse">
<stop stop-color="#52BBE8"/>
<stop offset="0.196" stop-color="#69C3EB"/>
<stop offset="0.6037" stop-color="#A3D8F1"/>
<stop offset="1" stop-color="#E1EFF8"/>
</linearGradient>
<linearGradient id="paint38_linear" x1="460.391" y1="382.494" x2="213.254" y2="1.37975" gradientUnits="userSpaceOnUse">
<stop stop-color="#52BBE8"/>
<stop offset="0.196" stop-color="#69C3EB"/>
<stop offset="0.6037" stop-color="#A3D8F1"/>
<stop offset="1" stop-color="#E1EFF8"/>
</linearGradient>
<linearGradient id="paint39_linear" x1="458.318" y1="383.839" x2="211.182" y2="2.72404" gradientUnits="userSpaceOnUse">
<stop stop-color="#52BBE8"/>
<stop offset="0.196" stop-color="#69C3EB"/>
<stop offset="0.6037" stop-color="#A3D8F1"/>
<stop offset="1" stop-color="#E1EFF8"/>
</linearGradient>
<linearGradient id="paint40_linear" x1="417.998" y1="409.414" x2="170.862" y2="28.3009" gradientUnits="userSpaceOnUse">
<stop stop-color="#52BBE8"/>
<stop offset="0.196" stop-color="#69C3EB"/>
<stop offset="0.6037" stop-color="#A3D8F1"/>
<stop offset="1" stop-color="#E1EFF8"/>
</linearGradient>
<linearGradient id="paint41_linear" x1="415.926" y1="410.759" x2="168.79" y2="29.644" gradientUnits="userSpaceOnUse">
<stop stop-color="#52BBE8"/>
<stop offset="0.196" stop-color="#69C3EB"/>
<stop offset="0.6037" stop-color="#A3D8F1"/>
<stop offset="1" stop-color="#E1EFF8"/>
</linearGradient>
<linearGradient id="paint42_linear" x1="441.382" y1="394.254" x2="194.244" y2="13.1379" gradientUnits="userSpaceOnUse">
<stop stop-color="#52BBE8"/>
<stop offset="0.196" stop-color="#69C3EB"/>
<stop offset="0.6037" stop-color="#A3D8F1"/>
<stop offset="1" stop-color="#E1EFF8"/>
</linearGradient>
<linearGradient id="paint43_linear" x1="452.043" y1="387.349" x2="204.905" y2="6.22405" gradientUnits="userSpaceOnUse">
<stop stop-color="#52BBE8"/>
<stop offset="0.196" stop-color="#69C3EB"/>
<stop offset="0.6037" stop-color="#A3D8F1"/>
<stop offset="1" stop-color="#E1EFF8"/>
</linearGradient>
<linearGradient id="paint44_linear" x1="439.309" y1="395.596" x2="192.173" y2="14.4811" gradientUnits="userSpaceOnUse">
<stop stop-color="#52BBE8"/>
<stop offset="0.196" stop-color="#69C3EB"/>
<stop offset="0.6037" stop-color="#A3D8F1"/>
<stop offset="1" stop-color="#E1EFF8"/>
</linearGradient>
<linearGradient id="paint45_linear" x1="475.416" y1="372.176" x2="228.283" y2="-8.93445" gradientUnits="userSpaceOnUse">
<stop stop-color="#52BBE8"/>
<stop offset="0.196" stop-color="#69C3EB"/>
<stop offset="0.6037" stop-color="#A3D8F1"/>
<stop offset="1" stop-color="#E1EFF8"/>
</linearGradient>
<linearGradient id="paint46_linear" x1="486.073" y1="365.271" x2="238.938" y2="-15.8436" gradientUnits="userSpaceOnUse">
<stop stop-color="#52BBE8"/>
<stop offset="0.196" stop-color="#69C3EB"/>
<stop offset="0.6037" stop-color="#A3D8F1"/>
<stop offset="1" stop-color="#E1EFF8"/>
</linearGradient>
<linearGradient id="paint47_linear" x1="473.346" y1="373.525" x2="226.209" y2="-7.58998" gradientUnits="userSpaceOnUse">
<stop stop-color="#52BBE8"/>
<stop offset="0.196" stop-color="#69C3EB"/>
<stop offset="0.6037" stop-color="#A3D8F1"/>
<stop offset="1" stop-color="#E1EFF8"/>
</linearGradient>
<linearGradient id="paint48_linear" x1="403.2" y1="419.013" x2="156.064" y2="37.8961" gradientUnits="userSpaceOnUse">
<stop stop-color="#52BBE8"/>
<stop offset="0.196" stop-color="#69C3EB"/>
<stop offset="0.6037" stop-color="#A3D8F1"/>
<stop offset="1" stop-color="#E1EFF8"/>
</linearGradient>
<linearGradient id="paint49_linear" x1="449.963" y1="388.689" x2="202.825" y2="7.57376" gradientUnits="userSpaceOnUse">
<stop stop-color="#52BBE8"/>
<stop offset="0.196" stop-color="#69C3EB"/>
<stop offset="0.6037" stop-color="#A3D8F1"/>
<stop offset="1" stop-color="#E1EFF8"/>
</linearGradient>
<linearGradient id="paint50_linear" x1="437.234" y1="396.939" x2="190.099" y2="15.8273" gradientUnits="userSpaceOnUse">
<stop stop-color="#52BBE8"/>
<stop offset="0.196" stop-color="#69C3EB"/>
<stop offset="0.6037" stop-color="#A3D8F1"/>
<stop offset="1" stop-color="#E1EFF8"/>
</linearGradient>
<linearGradient id="paint51_linear" x1="413.854" y1="412.106" x2="166.715" y2="30.9891" gradientUnits="userSpaceOnUse">
<stop stop-color="#52BBE8"/>
<stop offset="0.196" stop-color="#69C3EB"/>
<stop offset="0.6037" stop-color="#A3D8F1"/>
<stop offset="1" stop-color="#E1EFF8"/>
</linearGradient>
<linearGradient id="paint52_linear" x1="435.163" y1="398.284" x2="188.027" y2="17.1693" gradientUnits="userSpaceOnUse">
<stop stop-color="#52BBE8"/>
<stop offset="0.196" stop-color="#69C3EB"/>
<stop offset="0.6037" stop-color="#A3D8F1"/>
<stop offset="1" stop-color="#E1EFF8"/>
</linearGradient>
<linearGradient id="paint53_linear" x1="445.817" y1="391.377" x2="198.678" y2="10.2618" gradientUnits="userSpaceOnUse">
<stop stop-color="#52BBE8"/>
<stop offset="0.196" stop-color="#69C3EB"/>
<stop offset="0.6037" stop-color="#A3D8F1"/>
<stop offset="1" stop-color="#E1EFF8"/>
</linearGradient>
<linearGradient id="paint54_linear" x1="494.864" y1="380.339" x2="247.203" y2="-1.58489" gradientUnits="userSpaceOnUse">
<stop stop-color="#52BBE8"/>
<stop offset="0.196" stop-color="#69C3EB"/>
<stop offset="0.6037" stop-color="#A3D8F1"/>
<stop offset="1" stop-color="#E1EFF8"/>
</linearGradient>
<linearGradient id="paint55_linear" x1="495.035" y1="379.749" x2="247.373" y2="-2.17469" gradientUnits="userSpaceOnUse">
<stop stop-color="#52BBE8"/>
<stop offset="0.196" stop-color="#69C3EB"/>
<stop offset="0.6037" stop-color="#A3D8F1"/>
<stop offset="1" stop-color="#E1EFF8"/>
</linearGradient>
<linearGradient id="paint56_linear" x1="492.328" y1="381.913" x2="244.666" y2="-0.0117044" gradientUnits="userSpaceOnUse">
<stop stop-color="#52BBE8"/>
<stop offset="0.196" stop-color="#69C3EB"/>
<stop offset="0.6037" stop-color="#A3D8F1"/>
<stop offset="1" stop-color="#E1EFF8"/>
</linearGradient>
<linearGradient id="paint57_linear" x1="539.318" y1="351.513" x2="291.656" y2="-30.4112" gradientUnits="userSpaceOnUse">
<stop stop-color="#52BBE8"/>
<stop offset="0.196" stop-color="#69C3EB"/>
<stop offset="0.6037" stop-color="#A3D8F1"/>
<stop offset="1" stop-color="#E1EFF8"/>
</linearGradient>
<clipPath id="clip0">
<rect width="320" height="517.76" fill="white"/>
</clipPath>
<clipPath id="clip1">
<rect width="472" height="541" fill="white" transform="translate(-47)"/>
</clipPath>
</defs>
</svg>
